<?xml version="1.0" encoding="UTF-8"?>
<!-- Denver Black Guide • Favicon (SVG) -->
<svg xmlns="http://www.w3.org/2000/svg" width="64" height="64" viewBox="0 0 64 64" role="img" aria-label="Denver Black Guide">
  <rect x="0" y="0" width="64" height="64" rx="14" fill="#FFF7F4"/>
  <path fill="#A856F6"
        fill-rule="evenodd"
        stroke="#131735"
        stroke-width="2.8"
        stroke-linejoin="round"
        d="
          M32 10
          C22 10 14 18 14 28
          C14 39 25 48 30 54
          C31 55.2 33 55.2 34 54
          C39 48 50 39 50 28
          C50 18 42 10 32 10
          Z

          M32 23
          C29.5 20.5 25.2 20.5 22.8 23
          C20.2 25.6 20.2 29.6 22.8 32.2
          L32 41.4
          L41.2 32.2
          C43.8 29.6 43.8 25.6 41.2 23
          C38.8 20.5 34.5 20.5 32 23
          Z
        "/>
</svg>
