<svg xmlns="http://www.w3.org/2000/svg" xmlns:xlink="http://www.w3.org/1999/xlink" width="1449px" height="1835px" viewBox="0 0 1449.0560848455643 1834.8566190912657">
    <g id="379f15a8-8801-47f8-9b96-62922bc73675">
<g style="">
		<g id="379f15a8-8801-47f8-9b96-62922bc73675-child-0">
<path style="stroke: rgb(193,193,193); stroke-opacity: 1.00; stroke-width: 0; stroke-dasharray: none; stroke-linecap: butt; stroke-dashoffset: 0; stroke-linejoin: miter; stroke-miterlimit: 4; fill: rgb(125,19,223); fill-opacity: 1.00; fill-rule: nonzero; opacity: 1;" transform="matrix(4.589804 0 0 4.589804 724.5281 917.428383) matrix(1 0 0 1 2.6385 -14.808)  translate(-160.4935, -185.076)" d="M 310.05 155.20 C 310.05 220.23 250.56 285.74 205.99 325.71 C 179.25 349.70 157.86 364.49 157.86 364.49 C 157.86 364.49 137.14 349.66 111.28 325.58 C 68.23 285.61 10.94 220.16 10.94 155.20 C 10.94 72.63 77.88 5.66 160.51 5.66 C 243.14 5.66 310.05 72.63 310.05 155.20 Z" stroke-linecap="round"></path>
</g>
		<g id="379f15a8-8801-47f8-9b96-62922bc73675-child-1">
<path style="stroke: rgb(193,193,193); stroke-opacity: 1.00; stroke-width: 0; stroke-dasharray: none; stroke-linecap: butt; stroke-dashoffset: 0; stroke-linejoin: miter; stroke-miterlimit: 4; fill: rgb(239,180,165); fill-opacity: 1.00; fill-rule: nonzero; opacity: 1;" transform="matrix(4.589804 0 0 4.589804 724.5281 917.428383) matrix(1 0 0 1 0.1 -26.607375)  translate(-157.955, -173.276625)" d="M 225.49 180.27 C 208.61 197.15 157.96 247.81 157.96 247.81 C 157.96 247.81 107.30 197.15 90.42 180.27 C 71.77 161.62 71.77 131.38 90.42 112.74 C 109.07 94.09 139.31 94.09 157.96 112.74 C 176.60 94.09 206.84 94.09 225.49 112.74 C 244.14 131.38 244.14 161.62 225.49 180.27 Z" stroke-linecap="round"></path>
</g>
		<g id="379f15a8-8801-47f8-9b96-62922bc73675-child-2">
<path style="stroke: rgb(193,193,193); stroke-opacity: 1.00; stroke-width: 0; stroke-dasharray: none; stroke-linecap: butt; stroke-dashoffset: 0; stroke-linejoin: miter; stroke-miterlimit: 4; fill: rgb(40,5,65); fill-opacity: 1.00; fill-rule: nonzero; opacity: 1;" transform="matrix(4.589804 0 0 4.589804 724.5281 917.428383) matrix(1 0 0 1 0.0005 159.9595)  translate(-157.8555, -359.8435)" d="M 310.05 359.02 C 310.05 378.41 241.91 394.10 157.86 394.10 C 73.80 394.10 5.66 378.41 5.66 359.02 C 5.66 343.38 50.01 330.11 111.28 325.58 C 137.14 349.66 157.86 364.49 157.86 364.49 C 157.86 364.49 179.25 349.70 205.99 325.71 C 266.45 330.34 310.05 343.51 310.05 359.02 Z" stroke-linecap="round"></path>
</g>
		<g id="379f15a8-8801-47f8-9b96-62922bc73675-child-3">
<path style="stroke: rgb(193,193,193); stroke-opacity: 1.00; stroke-width: 0; stroke-dasharray: none; stroke-linecap: butt; stroke-dashoffset: 0; stroke-linejoin: miter; stroke-miterlimit: 4; fill: rgb(60,8,127); fill-opacity: 1.00; fill-rule: nonzero; opacity: 1;" transform="matrix(4.589804 0 0 4.589804 724.5281 917.428383) matrix(1 0 0 1 0 0)  translate(-157.855, -199.884)" d="M 157.96 253.47 C 159.46 253.47 160.90 252.87 161.96 251.81 L 229.50 184.28 C 250.32 163.45 250.32 129.56 229.50 108.73 C 209.95 89.19 178.92 87.98 157.95 105.11 C 136.99 87.98 105.95 89.19 86.41 108.73 C 65.59 129.56 65.59 163.45 86.41 184.28 L 153.95 251.81 C 155.01 252.87 156.45 253.47 157.95 253.47 Z M 94.43 116.74 C 102.37 108.79 112.95 104.41 124.19 104.41 C 135.43 104.41 146.00 108.79 153.95 116.74 C 156.16 118.95 159.75 118.95 161.96 116.74 C 169.91 108.79 180.48 104.41 191.72 104.41 C 202.97 104.41 213.54 108.79 221.49 116.74 C 237.90 133.15 237.90 159.85 221.49 176.27 L 157.96 239.80 L 94.43 176.27 C 78.02 159.86 78.02 133.15 94.43 116.74 Z M 45.17 59.98 C 42.80 57.94 42.55 54.36 44.60 51.99 C 45.93 50.45 47.33 48.95 48.80 47.44 C 50.99 45.20 54.58 45.16 56.81 47.35 C 59.05 49.53 59.10 53.12 56.91 55.36 C 55.60 56.70 54.35 58.04 53.16 59.41 C 52.04 60.70 50.46 61.37 48.87 61.37 C 47.56 61.37 46.24 60.91 45.17 59.98 Z M 219.27 321.22 C 265.33 278.08 315.71 216.81 315.71 155.20 C 315.71 69.62 246.09 0.00 160.51 0.00 C 126.87 0.00 94.90 10.55 68.05 30.51 C 65.54 32.37 65.02 35.92 66.89 38.43 C 68.76 40.95 72.31 41.47 74.81 39.60 C 99.69 21.11 129.32 11.33 160.51 11.33 C 239.84 11.33 304.38 75.87 304.38 155.20 C 304.38 189.25 286.67 245.71 202.30 321.41 C 202.28 321.42 202.27 321.44 202.25 321.46 C 202.23 321.47 202.22 321.48 202.20 321.50 C 182.08 339.55 164.86 352.45 157.91 357.49 C 151.15 352.40 134.53 339.50 115.13 321.43 C 33.70 245.81 16.60 189.30 16.60 155.20 C 16.60 128.00 24.23 101.53 38.65 78.66 C 40.31 76.02 39.52 72.52 36.88 70.85 C 34.23 69.18 30.73 69.97 29.06 72.62 C 13.50 97.30 5.27 125.86 5.27 155.20 C 5.27 216.79 53.85 277.97 98.25 321.03 C 64.49 324.37 -0.00 334.03 -0.00 359.02 C -0.00 388.92 94.40 399.77 157.85 399.77 C 221.31 399.77 315.71 388.92 315.71 359.02 C 315.71 334.37 252.66 324.64 219.27 321.22 Z M 157.86 388.44 C 61.65 388.44 11.33 369.28 11.33 359.02 C 11.33 352.71 36.08 337.14 109.26 331.42 C 134.21 354.46 153.72 368.50 154.56 369.09 C 155.54 369.80 156.70 370.15 157.86 370.15 C 158.98 370.15 160.11 369.82 161.08 369.15 C 161.94 368.55 182.12 354.52 207.93 331.56 C 273.69 336.87 304.38 351.01 304.38 359.02 C 304.38 369.28 254.06 388.44 157.85 388.44 Z" stroke-linecap="round"></path>
</g>
		<g id="379f15a8-8801-47f8-9b96-62922bc73675-child-4">
<path style="stroke: rgb(193,193,193); stroke-opacity: 1.00; stroke-width: 0; stroke-dasharray: none; stroke-linecap: butt; stroke-dashoffset: 0; stroke-linejoin: miter; stroke-miterlimit: 4; fill: rgb(255,255,255); fill-opacity: 1.00; fill-rule: nonzero; opacity: 1;" transform="matrix(4.589804 0 0 4.589804 724.5281 917.428383) matrix(1 0 0 1 -48.036825 -64.316026)  translate(-109.818175, -135.567974)" d="M 122.66 126.61 C 111.65 131.64 105.86 139.33 104.97 150.14 C 104.72 153.10 102.25 155.34 99.33 155.34 C 99.17 155.34 99.02 155.33 98.86 155.32 C 95.74 155.06 93.42 152.32 93.68 149.20 C 94.92 134.16 103.09 123.09 117.96 116.31 C 120.80 115.02 124.17 116.27 125.46 119.11 C 126.76 121.96 125.51 125.32 122.66 126.62 Z" stroke-linecap="round"></path>
</g>
</g>
</g>

  </svg>